<svg id="Layer_1" data-name="Layer 1" xmlns="http://www.w3.org/2000/svg" xmlns:xlink="http://www.w3.org/1999/xlink" viewBox="0 0 285.95 145.8"><defs><style>.cls-1{fill:none;}.cls-2{clip-path:url(#clip-path);}.cls-3{fill:#8dc63f;}</style><clipPath id="clip-path" transform="translate(-7 -77.2)"><rect class="cls-1" x="7" y="77.2" width="285.95" height="145.8"/></clipPath></defs><title>DVG</title><g class="cls-2"><path class="cls-3" d="M233.36,160.32c-5.23,0-8.49-3.39-8.49-7.57s3.26-7.58,8.49-7.58h21.29c4.83,0,8,3.14,8,8v7.58c0,17.5-11.23,33.82-34.35,33.82-25.86,0-40-20.37-40-44.53s14.5-44.54,39.71-44.54c11.89,0,21.16,4.57,25.86,10a10.86,10.86,0,0,1,3.14,7.19,7.11,7.11,0,0,1-7.19,7.31c-3.65,0-5.87-2.35-9.4-5a20.12,20.12,0,0,0-12.67-4.18c-14.63,0-23.38,12.8-23.38,29.13s8.62,29.12,23.51,29.12c11.89,0,18.81-8,18.81-15.93v-2.88Z" transform="translate(-7 -77.2)"/><path class="cls-3" d="M70.68,177.69c15.56,0,24.58-9.94,24.58-27.59s-9-27.59-24.58-27.59H58.51v55.18ZM50.54,193.12c-4.84,0-8-3.14-8-8V115.06c0-4.84,3.14-8,8-8h20c25.63,0,40.8,18.31,40.8,43s-15.17,43-40.8,43Z" transform="translate(-7 -77.2)"/><path class="cls-3" d="M163.81,85.31h0a8.11,8.11,0,0,0,8.11,8.1H276.78V206.83H23.17V93.41h81.58l9,23a7.94,7.94,0,0,0,14.8-5.76c-4.29-11.14-10.13-26.22-10.13-26.22-1.65-4.11-3.73-6.62-7.07-7.09v-.1H15.1A8.1,8.1,0,0,0,7,85.3V214.9a8.09,8.09,0,0,0,8.1,8.1H284.86a8.09,8.09,0,0,0,8.09-8.1V85.3a8.1,8.1,0,0,0-8.09-8.1H171.92a8.11,8.11,0,0,0-8.11,8.11" transform="translate(-7 -77.2)"/><path class="cls-3" d="M178.15,105.9c-4.05,0-6.4,2.62-8.23,7.2l-6.54,16.73c-4.45,11.38-9,23.93-13.6,37-1.69-4.83-6.41-17.34-11.69-31.19a7.8,7.8,0,1,0-14.56,5.62l18.14,46.23c1.83,4.57,4.32,6.79,8.11,6.79s6.28-2.22,8.11-6.79l25.89-65.91c.91-2.35,2.09-5.36,2.09-8.1,0-4.58-3.27-7.59-7.72-7.59" transform="translate(-7 -77.2)"/></g></svg>